<svg xmlns="http://www.w3.org/2000/svg" viewBox="0 0 64 64" role="img" aria-label="Selection favicon">
  <rect width="64" height="64" rx="12" fill="#111111" />
  <path d="M45.5 18.5C43.1 16.2 39.7 15 35.7 15C27.7 15 21.7 19.5 21.7 25.8C21.7 31.8 26 34.4 33.6 36.1C39.2 37.4 41.1 39 41.1 41.8C41.1 45.1 37.8 47.5 33.1 47.5C27.9 47.5 24 45.7 20.8 42.2L16.9 46.2C20.7 50.5 26.4 53 33.1 53C42.1 53 48.2 47.9 48.2 41.2C48.2 35 44 31.9 35.4 29.9C29.9 28.6 28.8 27 28.8 24.9C28.8 22.1 31.6 20.1 35.7 20.1C39.2 20.1 42 21.1 44.6 23.4L45.5 18.5Z" fill="#f4f1ea" />
</svg>
